<?xml version="1.0" encoding="utf-8"?>
<!-- Generator: Adobe Illustrator 27.8.1, SVG Export Plug-In . SVG Version: 6.00 Build 0)  -->
<svg version="1.1" id="Layer_1" xmlns="http://www.w3.org/2000/svg" xmlns:xlink="http://www.w3.org/1999/xlink" x="0px" y="0px"
	 viewBox="0 0 272 38" style="enable-background:new 0 0 272 38;" xml:space="preserve">
<style type="text/css">
	.st0{fill:#BAAB9E;}
	.st1{fill:#BE9165;}
</style>
<g>
	<g>
		<path class="st0" d="M271.3,20.6h-10.1v-3.3h10.1V20.6z M251.2,20.6h-10.1v-3.3h10.1V20.6z M231.1,20.6h-10.1v-3.3h10.1V20.6z
			 M211,20.6H201v-3.3H211V20.6z M190.9,20.6h-10.1v-3.3h10.1V20.6z M170.8,20.6h-10.1v-3.3h10.1V20.6z M150.7,20.6h-10.1v-3.3h10.1
			V20.6z M130.6,20.6h-10.1v-3.3h10.1V20.6z M110.5,20.6h-10.1v-3.3h10.1V20.6z M90.4,20.6H80.4v-3.3h10.1V20.6z M70.3,20.6H60.3
			v-3.3h10.1V20.6z M50.2,20.6H40.2v-3.3h10.1V20.6z M30.1,20.6H20.1v-3.3h10.1V20.6z M10.1,20.6H0v-3.3h10.1V20.6z"/>
	</g>
	<path class="st1" d="M148.3,22.2c2-1,4.1-2.1,6.4-3.2c-3-1.5-5.7-3-8.5-4.3c-1.2-0.6-1.5-1.2-0.8-2.4c1-1.8,1.9-3.7,2.8-5.5
		c-2.1,0.7-4,1.6-5.9,2.6c-1,0.5-1.7,0.5-2.2-0.7c-0.8-1.9-1.8-3.7-2.7-5.5c-0.5-1-1-2-1.7-3.2c-0.6,1.2-1.2,2.2-1.7,3.2
		c-0.9,1.8-1.9,3.7-2.7,5.5c-0.5,1.2-1.2,1.2-2.2,0.7c-1.9-1-3.7-1.9-5.9-2.6c0.9,1.8,1.8,3.7,2.8,5.5c0.6,1.2,0.4,1.8-0.8,2.4
		c-2.8,1.3-5.5,2.7-8.5,4.3c2.3,1.2,4.3,2.2,6.4,3.2c3.8,1.9,3.8,1.9,1.9,5.8c-0.6,1.2-1.2,2.3-1.9,3.9c2.2-1.1,4-2,5.9-2.9
		c1.9-0.9,1.9-0.9,2.8,0.8c1.3,2.7,2.7,5.3,4.1,8.2c1.5-2.9,2.8-5.6,4.1-8.2c0.9-1.8,0.9-1.8,2.8-0.8c1.8,0.9,3.6,1.8,5.9,2.9
		c-0.8-1.5-1.3-2.7-1.9-3.9C144.5,24.1,144.5,24.1,148.3,22.2z"/>
</g>
</svg>
