<?xml version="1.0" encoding="utf-8"?>
<!-- Generator: Adobe Illustrator 27.8.1, SVG Export Plug-In . SVG Version: 6.00 Build 0)  -->
<svg version="1.1" id="Layer_1" xmlns="http://www.w3.org/2000/svg" xmlns:xlink="http://www.w3.org/1999/xlink" x="0px" y="0px"
	 viewBox="0 0 318 70" style="enable-background:new 0 0 318 70;" xml:space="preserve">
<style type="text/css">
	.st0{fill:#BE9165;}
	.st1{fill:#FFFFFF;}
</style>
<g>
	<g>
		<g>
			<path class="st0" d="M5.8,36.5c-0.3,0-0.5,0.2-0.8,0.3C4.9,36.9,4.8,37,4.6,37c0.2-0.4,0.3-0.7,0.5-1.1c0.1-0.2,0.1-0.4-0.2-0.5
				c-0.5-0.2-1-0.5-1.6-0.8c0.3-0.1,0.6-0.3,0.8-0.4C4.4,34.1,4.7,34,5,33.8c0.2-0.1,0.3-0.2,0.1-0.4c-0.2-0.3-0.4-0.7-0.5-1.1
				c0.4,0.2,0.8,0.4,1.1,0.6C5.9,33,6,32.9,6.1,32.8c0.2-0.5,0.5-1,0.7-1.4c0-0.1,0.1-0.2,0.2-0.2c0.3,0.5,0.5,1.1,0.8,1.6
				C7.8,32.9,8,33,8.2,32.9c0.4-0.2,0.7-0.4,1.1-0.6c-0.2,0.4-0.4,0.7-0.5,1c0,0.1-0.1,0.2-0.1,0.3l0,0c-0.1,0.1-0.1,0.1,0,0.2
				c0.4,0.2,0.8,0.4,1.3,0.4c6,0,12,0,18,0c0.3,0,0.4,0,0.4-0.3c0.1-1.4,0.5-2.7,1.1-4c0.1-0.2,0-0.3-0.2-0.4
				c-2.4-1.4-4.9-2.8-7.3-4.2c-7.3-4.2-14.7-8.5-22-12.7c-0.2-0.1-0.2-0.2-0.1-0.4c0,0,0.1-0.1,0.1-0.1c0.1-0.2,0.2-0.2,0.4-0.1
				c3.6,2.1,7.2,4.2,10.8,6.2c4.8,2.8,9.6,5.5,14.4,8.3c1.4,0.8,2.8,1.6,4.2,2.4c0.2,0.1,0.2,0.1,0.3-0.1c0.3-0.4,0.6-0.8,0.9-1.2
				c0.1-0.1,0.1-0.2,0-0.3c-0.2-0.2-0.3-0.3-0.5-0.5c-0.1-0.1-0.1-0.2,0-0.3c0.4-0.4,0.4-0.4,0.8,0c0.4,0.4,0.4,0.4,0.9,0
				c0.3-0.3,0.6-0.5,1-0.7c0.2-0.1,0.2-0.2,0.1-0.3c-1.4-2.5-2.9-5-4.3-7.4c-0.1-0.1-0.2-0.2-0.1-0.3c0.2-0.1,0.4-0.2,0.5-0.3
				c0.1,0,0.1,0.1,0.2,0.2c1.1,2,2.3,3.9,3.4,5.9c0.3,0.5,0.6,1.1,0.9,1.6c0.1,0.2,0.2,0.2,0.3,0.1c0.4-0.2,0.9-0.4,1.4-0.6
				c0.2-0.1,0.2-0.1,0.2-0.3c-0.1-0.2-0.1-0.4-0.2-0.6c-0.1-0.2,0-0.2,0.2-0.3c0.5-0.1,0.5-0.2,0.6,0.4c0.2,0.6,0.2,0.6,0.8,0.5
				c0.4-0.1,0.7-0.1,1.1-0.1c0.2,0,0.3-0.1,0.3-0.3c0-1.3,0-2.6,0-3.9c0-4.7,0-9.4,0-14.1c0-0.3-0.1-0.4-0.3-0.4
				c-1.3-0.3-2.2-1.5-2.1-2.8c0.1-1.5,1.2-2.6,2.6-2.6c1.4-0.1,2.6,0.8,2.9,2.2c0.3,1.4-0.6,2.9-2,3.2c-0.2,0.1-0.3,0.2-0.3,0.4
				c0,6,0,12,0,18c0,0.3,0.1,0.3,0.3,0.4c0.5,0,0.9,0.1,1.3,0.2c0.2,0.1,0.3,0,0.3-0.2c0-0.2,0.1-0.4,0.2-0.6c0-0.1,0.1-0.2,0.2-0.1
				c0.6,0.1,0.6,0.1,0.4,0.7c-0.2,0.6-0.2,0.6,0.4,0.7c0.4,0.1,0.8,0.3,1.1,0.5c0.2,0.1,0.2,0.1,0.3-0.1c1.4-2.5,2.9-5,4.3-7.5
				c0.1-0.1,0.1-0.3,0.2-0.3c0.2,0.1,0.4,0.2,0.5,0.3c0.1,0.1,0,0.2-0.1,0.2c-0.7,1.2-1.4,2.5-2.1,3.7c-0.7,1.3-1.5,2.5-2.2,3.8
				c-0.1,0.2-0.1,0.3,0.1,0.4c0.4,0.3,0.8,0.6,1.2,0.9c0.1,0.1,0.2,0.1,0.3,0c0.2-0.2,0.4-0.4,0.5-0.6c0.1-0.1,0.1-0.1,0.2,0
				c0,0,0,0,0,0c0.4,0.4,0.4,0.4,0,0.8c-0.4,0.4-0.4,0.4-0.1,0.9c0.2,0.3,0.5,0.6,0.7,0.9c0.1,0.2,0.2,0.2,0.4,0.1
				c3.7-2.1,7.4-4.3,11.1-6.4c5.2-3,10.5-6,15.7-9c0.9-0.5,1.8-1,2.7-1.5c0.2-0.1,0.2-0.1,0.3,0.1c0.3,0.5,0.3,0.5-0.2,0.7
				c-5.7,3.3-11.5,6.6-17.2,9.9c-4,2.3-8,4.6-11.9,6.9c-0.2,0.1-0.2,0.2-0.1,0.4c0.6,1.3,1,2.6,1.1,4c0,0.3,0.1,0.3,0.3,0.3
				c4.4,0,8.8,0,13.2,0c1.6,0,3.2,0,4.8,0c0.5,0,0.8-0.3,1.2-0.5c0.1,0,0.1-0.2,0-0.3c-0.2-0.3-0.3-0.7-0.5-1.1
				c0.3,0.2,0.7,0.3,1,0.5c0.2,0.1,0.3,0.1,0.4-0.1c0.3-0.5,0.5-1.1,0.8-1.6c0.1,0.2,0.2,0.4,0.3,0.6c0.2,0.3,0.4,0.7,0.5,1
				c0.1,0.2,0.2,0.2,0.4,0.1c0.3-0.2,0.7-0.4,1.1-0.5c-0.2,0.3-0.3,0.7-0.5,1c-0.1,0.2-0.1,0.3,0.2,0.4c0.5,0.2,1,0.5,1.6,0.8
				c-0.4,0.2-0.8,0.4-1.2,0.6c-0.7,0.4-0.7,0.4-0.3,1.1c0.1,0.2,0.2,0.4,0.4,0.7c-0.4-0.2-0.8-0.4-1.1-0.5c-0.4-0.2-0.4-0.2-0.5,0.2
				c-0.3,0.5-0.5,1-0.8,1.6c-0.3-0.5-0.5-1-0.8-1.5c-0.1-0.3-0.2-0.4-0.5-0.2c-0.3,0.2-0.7,0.3-1.1,0.5c0.2-0.3,0.3-0.7,0.5-1
				c0.2-0.3,0.2-0.3-0.2-0.5c-0.5-0.3-1.1-0.4-1.7-0.4c-5.8,0-11.5,0-17.3,0c-0.4,0-0.4,0-0.4,0.4c-0.1,1.4-0.4,2.7-1,3.9
				c-0.1,0.2-0.1,0.3,0.1,0.4c9.1,5.2,18.2,10.5,27.3,15.8c0.7,0.4,1.4,0.8,2.1,1.2c0.2,0.1,0.2,0.2,0.1,0.3
				c-0.3,0.4-0.3,0.5-0.7,0.2C70.9,53.4,64.5,49.7,58,46c-3.3-1.9-6.6-3.8-10-5.7c-0.2-0.1-0.2-0.1-0.3,0.1c-0.3,0.5-0.6,0.9-1,1.3
				c-0.1,0.1-0.1,0.2,0,0.3c0.2,0.1,0.3,0.3,0.4,0.4c0.1,0.1,0.1,0.2,0,0.3c-0.4,0.4-0.4,0.4-0.8,0c-0.3-0.3-0.3-0.3-0.7,0
				c-0.3,0.3-0.7,0.6-1,0.8c-0.2,0.1-0.2,0.2-0.1,0.3c1.2,2.1,2.5,4.2,3.7,6.4c0.2,0.4,0.4,0.7,0.6,1.1c0.1,0.2,0.1,0.2-0.1,0.3
				c-0.5,0.3-0.5,0.3-0.7-0.2c-1.4-2.4-2.8-4.8-4.1-7.2c-0.1-0.2-0.2-0.2-0.4-0.1c-0.4,0.2-0.9,0.4-1.4,0.6
				c-0.2,0.1-0.3,0.2-0.2,0.4c0,0,0,0.1,0,0.2c0.1,0.5,0.1,0.5-0.4,0.7c-0.1,0-0.2,0-0.2-0.1c0-0.2-0.1-0.4-0.1-0.6
				c0-0.1-0.1-0.2-0.2-0.2c-0.5,0.1-1.1,0.2-1.6,0.2c-0.2,0-0.2,0.1-0.2,0.2c0,0.1,0,0.2,0,0.2c0,5.8,0,11.6,0,17.4
				c0,0.4,0.1,0.7,0.2,1.1c0.4,0.7,0.4,0.7,1.1,0.4c0.2-0.1,0.4-0.2,0.7-0.3c-0.2,0.4-0.4,0.8-0.6,1.1c-0.1,0.2-0.1,0.3,0.1,0.4
				c0.5,0.3,1.1,0.5,1.6,0.8C42,66.7,41.5,67,41,67.2c-0.2,0.1-0.2,0.2-0.1,0.4c0.2,0.4,0.4,0.7,0.5,1.1c-0.3-0.1-0.5-0.3-0.8-0.4
				c-0.6-0.3-0.6-0.3-0.9,0.3c-0.2,0.4-0.4,0.8-0.7,1.3c-0.3-0.6-0.5-1.1-0.8-1.6c-0.1-0.2-0.2-0.3-0.5-0.1
				c-0.3,0.2-0.7,0.4-1.1,0.5c0.2-0.4,0.3-0.7,0.5-1.1c0.1-0.2,0.1-0.3-0.1-0.5c-0.5-0.2-1.1-0.5-1.6-0.8c0.5-0.3,1-0.5,1.5-0.7
				c0.4-0.2,0.5-0.1,0.2-0.6c-0.2-0.3-0.3-0.6-0.5-1c0.4,0.2,0.7,0.4,1.1,0.5c0.3,0.2,0.4,0.1,0.5-0.2c0.3-0.5,0.4-1,0.4-1.6
				c0-5.8,0-11.5,0-17.3c0-0.5,0-0.4-0.4-0.4c-0.5,0-0.9-0.1-1.4-0.2c-0.2,0-0.2,0-0.2,0.1c0,0.1-0.1,0.2-0.1,0.3
				c0,0.1,0,0.4-0.2,0.4c-0.2,0-0.4-0.1-0.6-0.1c-0.1,0,0-0.1,0-0.2c0-0.2,0.1-0.4,0.1-0.5c0.1-0.2,0-0.3-0.2-0.3
				c-0.5-0.2-0.9-0.3-1.4-0.6c-0.2-0.1-0.3-0.1-0.4,0.1c-1.4,2.5-2.8,4.9-4.3,7.4c-0.1,0.2-0.2,0.2-0.4,0.1
				c-0.4-0.3-0.4-0.2-0.2-0.7c1.4-2.4,2.8-4.8,4.2-7.2c0.1-0.2,0.1-0.3-0.1-0.4c-0.4-0.3-0.8-0.6-1.2-0.9c-0.1-0.1-0.2-0.1-0.3,0
				c-0.1,0.1-0.3,0.3-0.4,0.4c-0.1,0.1-0.1,0.1-0.2,0c-0.5-0.4-0.5-0.4,0-0.8c0.1-0.1,0.1-0.1,0.2-0.2c0.1-0.1,0.1-0.1,0-0.2
				c-0.4-0.4-0.7-0.9-1-1.3c-0.1-0.2-0.2-0.1-0.3,0c-1.1,0.6-2.1,1.2-3.2,1.8c-5.5,3.2-11,6.4-16.5,9.5c-3.2,1.8-6.3,3.6-9.5,5.5
				c-0.1,0-0.1,0.1-0.2,0.1c-0.1,0.1-0.2,0-0.2-0.1c-0.3-0.5-0.3-0.5,0.2-0.7c8.6-5,17.3-10,25.9-15c1-0.6,2.1-1.2,3.1-1.8
				c0.2-0.1,0.3-0.2,0.1-0.5c-0.6-1.2-1-2.6-1-3.9c0-0.2-0.1-0.3-0.3-0.3c-2.1,0-4.1,0-6.2,0c-3.8,0-7.6,0-11.4,0
				c-0.5,0-0.9,0.1-1.3,0.3c-0.7,0.4-0.7,0.4-0.4,1.1C9,36.5,9.2,36.8,9.2,37c-0.3-0.1-0.5-0.2-0.8-0.4c-0.2-0.1-0.4-0.1-0.6-0.2
				c-0.1,0-0.1,0.1-0.1,0.1c-0.3,0.5-0.5,1.1-0.8,1.6c-0.1,0-0.1-0.1-0.2-0.2c-0.2-0.5-0.5-0.9-0.7-1.4C6,36.5,6,36.3,5.8,36.5
				L5.8,36.5z M39,24.9c-5.4,0-9.7,4.3-9.7,9.7c0,5.4,4.3,9.7,9.7,9.7c5.4,0,9.7-4.3,9.7-9.7C48.7,29.3,44.4,24.9,39,24.9z"/>
			<path class="st0" d="M62.9,13.1c-0.5,0-0.9-0.1-1.2-0.3c-0.1-0.1-0.2-0.1-0.3,0c-0.4,0.4-0.9,0.9-1.3,1.3c-0.1,0.1-0.2,0.2-0.4,0
				c-0.4-0.4-0.4-0.4,0-0.7c0.4-0.4,0.8-0.8,1.1-1.1c0.1-0.1,0.1-0.2,0-0.3c-0.9-1.5,0-3.3,1.7-3.5c1.2-0.2,2.4,0.7,2.7,1.9
				c0.2,1.3-0.6,2.5-1.9,2.7C63.1,13.1,63,13.1,62.9,13.1z M64.6,10.8c0-1-0.8-1.8-1.8-1.8c-1,0-1.8,0.8-1.8,1.8
				c0,1,0.8,1.8,1.8,1.8C63.8,12.5,64.6,11.8,64.6,10.8z"/>
			<path class="st0" d="M62.8,60.8c-1.8,0-2.9-2-2-3.5c0.1-0.2,0.1-0.3-0.1-0.4c-0.4-0.4-0.8-0.8-1.3-1.2c-0.1-0.1-0.2-0.2,0-0.4
				c0.4-0.3,0.3-0.3,0.7,0c0.4,0.4,0.8,0.8,1.1,1.1c0.1,0.1,0.2,0.1,0.3,0c1.6-0.9,3.4,0.1,3.6,1.8C65.3,59.5,64.2,60.8,62.8,60.8z
				 M64.6,58.4c0-1-0.8-1.8-1.8-1.8c-1,0-1.8,0.8-1.8,1.8c0,1,0.8,1.8,1.8,1.8C63.8,60.2,64.6,59.4,64.6,58.4z"/>
			<path class="st0" d="M12.9,58.4c0-1.8,1.9-2.9,3.4-2.1c0.2,0.1,0.3,0.1,0.4-0.1c0.4-0.4,0.8-0.8,1.2-1.2c0.1-0.2,0.2-0.1,0.4,0
				c0.3,0.4,0.4,0.4,0,0.7c-0.3,0.3-0.7,0.7-1,1c-0.1,0.1-0.2,0.2-0.1,0.4c0.5,0.8,0.5,1.9-0.2,2.7c-0.6,0.8-1.7,1.1-2.6,0.8
				C13.6,60.3,12.9,59.4,12.9,58.4z M15.3,56.6c-1,0-1.8,0.8-1.8,1.8c0,1,0.8,1.8,1.8,1.8c1,0,1.8-0.8,1.8-1.8
				C17.1,57.4,16.3,56.6,15.3,56.6z"/>
			<path class="st0" d="M17.7,10.8c0,0.5-0.1,0.9-0.4,1.3c-0.1,0.2-0.1,0.2,0,0.4c0.4,0.4,0.8,0.8,1.3,1.2c0.1,0.1,0.1,0.2,0,0.3
				c-0.4,0.4-0.4,0.4-0.7,0c-0.4-0.4-0.7-0.7-1.1-1.1c-0.1-0.1-0.2-0.2-0.4-0.1c-0.9,0.4-1.7,0.3-2.5-0.2c-0.7-0.6-1.1-1.4-0.9-2.3
				c0.2-1,0.8-1.6,1.7-1.8C16.2,8.1,17.7,9.2,17.7,10.8z M15.3,12.5c1,0,1.8-0.8,1.8-1.8c0-1-0.8-1.8-1.8-1.8c-1,0-1.8,0.8-1.8,1.8
				C13.5,11.7,14.3,12.5,15.3,12.5z"/>
			<path class="st0" d="M22.4,51.7c0,0.1-0.1,0.1-0.1,0.2c-0.6,0.6-1.1,1.1-1.7,1.7c-0.1,0.1-0.1,0.1-0.2,0c-0.4-0.4-0.5-0.4,0-0.8
				c0.5-0.5,0.9-0.9,1.4-1.4c0.2-0.2,0.3-0.2,0.4,0C22.2,51.6,22.3,51.6,22.4,51.7z"/>
			<path class="st0" d="M20.3,15.4c0.1,0.1,0.2,0.1,0.2,0.2c0.6,0.6,1.1,1.1,1.7,1.7c0.1,0.1,0.1,0.2,0,0.3c-0.4,0.4-0.4,0.4-0.8,0
				c-0.5-0.5-1-1-1.4-1.4c-0.1-0.1-0.1-0.2,0-0.3C20.1,15.7,20.2,15.5,20.3,15.4z"/>
			<path class="st0" d="M58.2,15.9c-0.1,0.1-0.1,0.1-0.1,0.2c-0.6,0.6-1.1,1.1-1.7,1.7c-0.1,0.1-0.2,0.1-0.3,0
				c-0.4-0.4-0.4-0.4,0-0.8c0.5-0.5,0.9-0.9,1.4-1.4c0.2-0.2,0.3-0.2,0.4,0C57.9,15.7,58.1,15.8,58.2,15.9z"/>
			<path class="st0" d="M24,50.1c-0.2-0.2-0.3-0.3-0.4-0.5c-0.1-0.1,0.1-0.2,0.2-0.3c0.5-0.5,1.1-1.1,1.6-1.6c0.1-0.1,0.2-0.1,0.3,0
				c0.4,0.4,0.4,0.4,0,0.8c-0.5,0.5-1,1-1.4,1.4C24.1,50,24.1,50.1,24,50.1z"/>
			<path class="st0" d="M29.6,44.5c-0.1,0.1-0.1,0.1-0.1,0.2c-0.6,0.6-1.1,1.1-1.7,1.7c-0.1,0.1-0.1,0.1-0.2,0
				c-0.4-0.4-0.4-0.4,0-0.8c0.5-0.5,0.9-0.9,1.4-1.4c0.2-0.2,0.3-0.2,0.4,0C29.3,44.4,29.4,44.4,29.6,44.5z"/>
			<path class="st0" d="M23.9,19c0.1,0.1,0.1,0.1,0.2,0.2c0.6,0.6,1.1,1.1,1.7,1.7c0.1,0.1,0.1,0.2,0,0.3c-0.4,0.4-0.4,0.4-0.8,0
				c-0.5-0.5-1-1-1.4-1.4c-0.1-0.1-0.1-0.2,0-0.3C23.7,19.3,23.8,19.2,23.9,19z"/>
			<path class="st0" d="M54,19.1c0.1,0.1,0.3,0.3,0.4,0.5c0.1,0.1-0.1,0.2-0.2,0.3c-0.5,0.5-1,1-1.5,1.5c-0.1,0.1-0.2,0.2-0.4,0
				C52,21,52,21,52.4,20.7c0.5-0.5,1-1,1.4-1.4C53.9,19.2,53.9,19.1,54,19.1z"/>
			<path class="st0" d="M27.6,22.7c0,0,0.1,0.1,0.1,0.1c0.6,0.6,1.1,1.1,1.7,1.7c0.1,0.1,0.1,0.2,0,0.3c-0.4,0.4-0.4,0.4-0.8,0
				c-0.4-0.4-0.8-0.8-1.3-1.3c-0.3-0.3-0.3-0.3,0-0.7C27.4,22.8,27.5,22.7,27.6,22.7z"/>
			<path class="st0" d="M50.4,22.7c0,0,0.5,0.4,0.5,0.5c0,0.1,0,0.1-0.1,0.1c-0.6,0.6-1.1,1.1-1.7,1.7c-0.1,0.1-0.2,0.1-0.3,0
				c-0.4-0.4-0.4-0.4,0-0.8c0.5-0.5,1-1,1.4-1.4C50.3,22.7,50.4,22.7,50.4,22.7z"/>
			<path class="st0" d="M30.4,65.1c0.2-0.8,0.4-1.6,0.6-2.4c0-0.1,0.1-0.1,0.2-0.1c0.6,0.1,0.6,0.1,0.5,0.7
				c-0.2,0.6-0.4,1.3-0.5,1.9c0,0.2-0.1,0.2-0.3,0.2c-0.1,0-0.2-0.1-0.4-0.1C30.4,65.3,30.4,65.2,30.4,65.1z"/>
			<path class="st0" d="M44.1,16.5c-0.2-0.1-0.4-0.1-0.6-0.2c-0.1,0-0.1-0.1,0-0.2c0.2-0.8,0.4-1.6,0.6-2.4c0-0.1,0.1-0.1,0.2-0.1
				c0.6,0.1,0.6,0.1,0.4,0.7c-0.2,0.6-0.3,1.3-0.5,1.9C44.2,16.4,44.3,16.5,44.1,16.5z"/>
			<path class="st0" d="M46.2,6.3c0.2-0.8,0.4-1.6,0.6-2.4c0-0.1,0.1-0.1,0.2-0.1c0.6,0.1,0.6,0.1,0.5,0.7c-0.2,0.6-0.4,1.3-0.5,1.9
				c-0.1,0.2-0.1,0.3-0.3,0.2c-0.1,0-0.2-0.1-0.3-0.1C46.2,6.5,46.1,6.4,46.2,6.3z"/>
			<path class="st0" d="M33.7,55.5C33.6,55.5,33.6,55.5,33.7,55.5c-0.6-0.1-0.6-0.1-0.5-0.7c0.2-0.6,0.4-1.3,0.5-2
				c0-0.2,0.1-0.2,0.3-0.2c0.5,0.1,0.5,0.1,0.4,0.6c-0.2,0.7-0.4,1.3-0.5,2C33.8,55.4,33.8,55.6,33.7,55.5z"/>
			<path class="st0" d="M45.7,8.7c0.2,0,0.3,0.1,0.5,0.1c0.1,0,0.1,0.1,0.1,0.2c-0.2,0.8-0.4,1.6-0.6,2.4c0,0.1-0.1,0.2-0.2,0.1
				c0,0,0,0-0.1,0c-0.6-0.2-0.5,0-0.4-0.6c0.2-0.7,0.4-1.3,0.5-2C45.5,8.8,45.5,8.7,45.7,8.7z"/>
			<path class="st0" d="M32.6,57.6c0.1,0,0.3,0.1,0.5,0.1c0.1,0,0.1,0.1,0.1,0.2c-0.2,0.8-0.4,1.6-0.6,2.4c0,0.1-0.1,0.1-0.2,0.1
				c0,0,0,0-0.1,0c-0.6-0.2-0.5,0-0.4-0.6c0.2-0.7,0.4-1.3,0.5-2C32.4,57.7,32.4,57.6,32.6,57.6z"/>
			<path class="st0" d="M43.6,50.4c0,0,0,0.1,0,0.1c-0.2,0.1-0.4,0.1-0.6,0.2c-0.1,0-0.1-0.1-0.1-0.1c-0.2-0.8-0.4-1.6-0.6-2.3
				c0-0.1,0-0.2,0.1-0.2c0.5-0.2,0.5-0.2,0.7,0.4c0.2,0.6,0.3,1.3,0.5,1.9C43.6,50.3,43.6,50.3,43.6,50.4z"/>
			<path class="st0" d="M44.3,55.5c-0.1,0-0.1-0.1-0.1-0.1c-0.2-0.8-0.4-1.6-0.6-2.4c0-0.1,0-0.2,0.1-0.2c0.5-0.2,0.5-0.2,0.7,0.4
				c0.2,0.6,0.3,1.3,0.5,1.9c0.1,0.2,0,0.3-0.2,0.4C44.6,55.5,44.4,55.5,44.3,55.5z"/>
			<path class="st0" d="M43.6,18.8c-0.2,0.7-0.3,1.3-0.5,1.9c-0.1,0.2-0.1,0.4-0.2,0.6c0,0.1-0.1,0.1-0.2,0.1
				c-0.6-0.1-0.6-0.1-0.4-0.7c0.2-0.6,0.3-1.3,0.5-1.9c0.1-0.2,0.1-0.3,0.3-0.2c0.1,0,0.2,0.1,0.3,0.1
				C43.6,18.7,43.6,18.8,43.6,18.8z"/>
			<path class="st0" d="M35.7,21.1c0,0.1,0,0.2-0.1,0.2c-0.2,0.1-0.4,0.1-0.5,0.1c-0.1,0-0.1,0-0.1-0.1c-0.2-0.8-0.4-1.6-0.6-2.4
				c0-0.1,0-0.1,0.1-0.2c0.2-0.1,0.4-0.1,0.5-0.1c0.1,0,0.1,0,0.1,0.1C35.3,19.5,35.5,20.3,35.7,21.1z"/>
			<path class="st0" d="M35,50.7c-0.2-0.1-0.4-0.1-0.5-0.1c-0.1,0-0.1-0.1-0.1-0.2c0.2-0.8,0.4-1.6,0.6-2.4c0-0.1,0.1-0.1,0.2-0.1
				c0.6,0.1,0.6,0.1,0.4,0.7c-0.2,0.6-0.3,1.3-0.5,1.9C35.1,50.6,35.1,50.7,35,50.7z"/>
			<path class="st0" d="M33.6,13.7c0.1,0,0.1,0,0.2,0.1c0.2,0.8,0.4,1.6,0.6,2.3c0,0.1,0,0.2-0.1,0.2c-0.5,0.2-0.5,0.2-0.7-0.4
				c-0.2-0.6-0.3-1.2-0.5-1.9c-0.1-0.3,0-0.4,0.2-0.4C33.4,13.8,33.5,13.7,33.6,13.7z"/>
			<path class="st0" d="M47.6,65.1c0,0.1,0,0.1-0.1,0.2c0,0,0,0-0.1,0c-0.5,0.2-0.5,0.2-0.7-0.4c-0.2-0.6-0.3-1.3-0.5-1.9
				c-0.1-0.2,0-0.3,0.2-0.3c0.5-0.1,0.5-0.1,0.6,0.3c0.2,0.6,0.3,1.3,0.5,1.9C47.5,65,47.6,65.1,47.6,65.1z"/>
			<path class="st0" d="M32.5,11.6c-0.1,0-0.1-0.1-0.1-0.1c-0.2-0.8-0.4-1.6-0.6-2.4c0-0.1,0-0.2,0.1-0.2c0.6-0.2,0.6-0.2,0.7,0.4
				c0.2,0.6,0.3,1.3,0.5,1.9c0.1,0.2,0,0.3-0.2,0.3C32.8,11.5,32.6,11.5,32.5,11.6z"/>
			<path class="st0" d="M46.2,60.1c0,0.1,0,0.2-0.1,0.2c0,0,0,0-0.1,0c-0.5,0.2-0.5,0.2-0.7-0.4c-0.2-0.6-0.3-1.3-0.5-1.9
				c-0.1-0.2,0-0.3,0.2-0.3c0.5-0.1,0.5-0.1,0.6,0.4c0.2,0.6,0.3,1.3,0.5,1.9C46.2,60,46.2,60.1,46.2,60.1z"/>
			<path class="st0" d="M31.8,6.3c0,0.1,0,0.2-0.1,0.2c0,0-0.1,0-0.1,0c-0.5,0.2-0.5,0.2-0.7-0.4c-0.2-0.6-0.3-1.3-0.5-1.9
				c-0.1-0.2,0-0.3,0.2-0.3c0.5-0.1,0.5-0.1,0.6,0.4c0.2,0.7,0.3,1.3,0.5,2C31.8,6.2,31.8,6.3,31.8,6.3z"/>
			<path class="st0" d="M54.5,49.6c-0.2,0.2-0.3,0.3-0.5,0.5c-0.1,0.1-0.2-0.1-0.2-0.2c-0.5-0.5-1.1-1.1-1.6-1.6
				c-0.1-0.1-0.1-0.2,0-0.3c0.4-0.4,0.4-0.4,0.8,0c0.5,0.5,1,1,1.4,1.4C54.4,49.5,54.5,49.5,54.5,49.6z"/>
			<path class="st0" d="M58.1,53.2c-0.1,0.1-0.2,0.2-0.3,0.3c-0.2,0.2-0.3,0.2-0.5,0c-0.5-0.5-1-1.1-1.6-1.6c-0.1-0.1-0.2-0.2,0-0.3
				c0.4-0.4,0.4-0.4,0.7,0c0.5,0.5,1,1,1.4,1.4C58,53.1,58.1,53.1,58.1,53.2z"/>
			<path class="st0" d="M49,44.1c0,0,0.1,0.1,0.1,0.1c0.6,0.6,1.1,1.1,1.7,1.7c0.1,0.1,0.1,0.2,0,0.3c-0.4,0.4-0.4,0.4-0.7,0
				c-0.5-0.5-0.9-1-1.4-1.4c-0.2-0.1-0.2-0.2,0-0.4C48.8,44.3,48.9,44.2,49,44.1z"/>
			<path class="st0" d="M8.7,33.6C8.7,33.6,8.8,33.6,8.7,33.6C8.8,33.6,8.8,33.6,8.7,33.6C8.8,33.6,8.7,33.6,8.7,33.6
				C8.7,33.6,8.7,33.6,8.7,33.6z"/>
			<polygon class="st0" points="5.8,36.5 5.9,36.5 5.8,36.5 			"/>
		</g>
		<path class="st0" d="M39,45.7c-6,0-10.9-4.9-10.9-10.9S33,23.9,39,23.9s10.9,4.9,10.9,10.9S45,45.7,39,45.7z M39,25.7
			c-5.1,0-9.2,4.1-9.2,9.2S34,44,39,44s9.2-4.1,9.2-9.2S44.1,25.7,39,25.7z"/>
		<path class="st0" d="M15.6,13.4c-1.5,0-2.7-1.2-2.7-2.7c0-1.5,1.2-2.7,2.7-2.7c1.5,0,2.7,1.2,2.7,2.7
			C18.3,12.2,17.1,13.4,15.6,13.4z M15.6,9.3c-0.8,0-1.5,0.7-1.5,1.5c0,0.8,0.7,1.5,1.5,1.5c0.8,0,1.5-0.7,1.5-1.5
			C17.1,9.9,16.4,9.3,15.6,9.3z"/>
		<path class="st0" d="M63.1,13.4c-1.5,0-2.7-1.2-2.7-2.7c0-1.5,1.2-2.7,2.7-2.7c1.5,0,2.7,1.2,2.7,2.7
			C65.8,12.2,64.6,13.4,63.1,13.4z M63.1,9.3c-0.8,0-1.5,0.7-1.5,1.5c0,0.8,0.7,1.5,1.5,1.5s1.5-0.7,1.5-1.5
			C64.6,9.9,63.9,9.3,63.1,9.3z"/>
		<path class="st0" d="M15.6,61.1c-1.5,0-2.7-1.2-2.7-2.7c0-1.5,1.2-2.7,2.7-2.7c1.5,0,2.7,1.2,2.7,2.7
			C18.3,59.9,17.1,61.1,15.6,61.1z M15.6,56.9c-0.8,0-1.5,0.7-1.5,1.5c0,0.8,0.7,1.5,1.5,1.5c0.8,0,1.5-0.7,1.5-1.5
			C17.1,57.6,16.4,56.9,15.6,56.9z"/>
		<path class="st0" d="M63.1,61.1c-1.5,0-2.7-1.2-2.7-2.7c0-1.5,1.2-2.7,2.7-2.7c1.5,0,2.7,1.2,2.7,2.7
			C65.8,59.9,64.6,61.1,63.1,61.1z M63.1,56.9c-0.8,0-1.5,0.7-1.5,1.5c0,0.8,0.7,1.5,1.5,1.5s1.5-0.7,1.5-1.5
			C64.6,57.6,63.9,56.9,63.1,56.9z"/>
	</g>
	<g>
		<g>
			<path class="st1" d="M111.5,45.2c-0.1,0.7-3.6,3.4-9.1,3.4c-7.7,0-12.5-5.3-12.5-12.7c0-7,4.1-12.9,12.4-12.9
				c6.2,0,9.3,1.8,9.3,3c0,1.7-0.4,4.9-1,4.9c-0.1,0-0.4,0-0.5-0.2c-0.8-4.1-3.9-6.2-7.6-6.2c-5.8,0-9.2,4.9-9.2,11.6
				c0,6.4,4.3,11,9.3,11c4.4,0,6.9-2.5,8-3.8c0.1-0.1,0.5-0.7,0.8-0.7c0.1,0,0.3,0.1,0.3,0.3C111.8,43.5,111.5,45.2,111.5,45.2z"/>
		</g>
		<g>
			<path class="st1" d="M141.9,35.3c0,7.8-5.5,13.7-13,13.7c-8,0-13.2-5.2-13.2-12.6c0-8,6-13.6,13.4-13.6
				C137.8,22.8,141.9,28.7,141.9,35.3z M138.5,36.3c0-6.2-2.6-11.9-9.8-11.9c-6.1,0-9.5,5.7-9.5,11.7c0,6.2,3.9,11.4,9.8,11.4
				C134.8,47.5,138.5,42.3,138.5,36.3z"/>
		</g>
		<g>
			<path class="st1" d="M172.9,47.7c0.3,0,0.5,0.2,0.5,0.4c0,0.2,0,0.5-1,0.5c-0.6-0.1-1.9-0.1-2.8-0.1c-0.9,0-2.2,0.1-2.8,0.2
				c-1,0-1-0.3-1-0.4c0-0.1,0.2-0.5,0.8-0.5c0.8,0,1.3-0.7,1.3-1.3V34c0-7.5-3.4-9-6.7-9c-5.1,0-8.3,5.8-8.3,10.3V46
				c0,1.2,0.8,1.7,1.8,1.7c0.3,0,0.5,0.2,0.5,0.4c0,0.2,0,0.5-1.1,0.5c-0.6-0.1-1.9-0.1-2.8-0.1c-0.9,0-2.2,0.1-2.9,0.2
				c-1,0-1-0.3-1-0.4c0-0.1,0.2-0.5,0.8-0.5c0.8,0,1.3-0.7,1.3-1.3V29.1c0-2.9-0.1-5.1-2.5-5.1c-0.3,0-0.9,0-0.9-0.5
				c0-0.2,0-0.5,0.8-0.5c0.5,0,1,0,1.5,0c0.5,0,0.8,0,2.4,0c1.6,0,2.1,1.3,2.1,2V28c1.4-2.4,4.5-5,8.8-5c5.2,0,9.6,2.8,9.6,9.8V46
				C171.1,47.2,171.9,47.7,172.9,47.7z"/>
		</g>
		<g>
			<path class="st1" d="M184.5,49c-2.1,0-5.9-0.6-6.1-2.8l-0.2-3c0-0.5,0.1-0.8,0.3-0.8c0.4,0,0.5,0.3,0.5,0.6
				c0,1.9,2.5,4.4,5.9,4.4c2.8,0,5.7-1.6,5.7-4.5c0-5.7-11.9-6.5-11.9-14c0-3.7,3.5-6,8-6c2.5,0,6.2,0.5,6.2,2.7
				c0,1-0.5,1.5-0.5,2.3c0,0.4,0,0.9-0.4,0.9c-0.3,0-0.4-0.3-0.4-0.7c0-1.4-1.5-3.7-5-3.7c-2.2,0-4.9,1.1-4.9,3.9
				c0,5.2,12,6.6,12,13.7C193.7,46.4,189.5,49,184.5,49z"/>
		</g>
		<g>
			<path class="st1" d="M204.1,25.1c0-0.3-0.2-0.5-2.2-0.5c-2.5,0-5.4,1.5-5.4,2.6c0,0.3-0.1,0.4-0.3,0.4c-0.3,0-0.4-0.3-0.4-0.7
				c0.3-3.4,1-4,2.3-4c2.3,0,3.9,0.1,7.6,0.1c3.5,0,7-0.3,8-0.3c2,0,2,1.8,2,2.9c0.1,0.7,0.2,1.3,0.2,1.6c0,0.3-0.1,0.5-0.3,0.5
				c-0.2,0-0.4-0.2-0.4-0.5c0-1.3-2.2-2.8-5.1-2.8c-1.6,0-2.6,0.2-2.6,0.8V46c0,1.2,0.8,1.7,1.8,1.7c0.3,0,0.5,0.2,0.5,0.4
				c0,0.2,0,0.5-1.1,0.5c-0.6-0.1-1.9-0.1-2.8-0.1c-0.9,0-2.2,0.1-2.9,0.2c-1,0-1-0.3-1-0.4c0-0.1,0.2-0.5,0.8-0.5
				c0.8,0,1.3-0.7,1.3-1.5V25.1z"/>
		</g>
		<g>
			<path class="st1" d="M225.4,47.7c0.3,0,0.5,0.2,0.5,0.4c0,0.2,0,0.5-1.1,0.5c-0.6-0.1-1.9-0.1-2.8-0.1c-0.9,0-2.3,0-2.9,0.1
				c-1,0-1-0.3-1-0.4c0-0.1,0.2-0.5,0.8-0.5c0.8,0,1.3-0.7,1.3-1.5V25.4c0-1-0.4-1.5-0.9-1.5c-0.8,0-1-0.2-1-0.5
				c0,0,0.1-0.3,0.7-0.3c0.6,0,1.5,0.1,2.3,0.1c1.3,0,2.5-0.1,3.6-0.1c0.4,0,0.7,0.1,0.7,0.3c0,0.3-0.5,0.5-0.9,0.5
				c-0.8,0-1.1,0.5-1.1,1.4c0,1,0,7.9,0,7.9c0,0.6,0.5,0.6,3.5,0.6h7.9c2.3,0,2.6-0.1,2.6-0.5v-8c0-0.8-0.5-1.4-1.1-1.4
				c-0.5,0-0.8,0-0.8-0.4c0-0.2,0.3-0.4,1-0.4c1.3,0,2.1,0.1,3,0.1c1.7,0,3-0.1,2.9-0.1c0.6,0,0.6,0.3,0.6,0.4c0,0.1,0,0.5-0.8,0.5
				c-0.5,0-1.3,0.2-1.3,1.4v20.5c0,1.7,0.9,1.8,1.5,1.8c0.7,0,0.8,0.1,0.8,0.5c0,0.2-0.4,0.4-0.8,0.4c-0.8,0-1.8-0.1-2.6-0.1
				c-1.1,0-2.5,0.1-3.5,0.1c-0.8,0-0.9-0.3-0.9-0.4c0-0.2,0.2-0.5,0.6-0.5c0.8,0,1.6-0.5,1.6-1.8V36c0-0.5-0.6-0.5-1.4-0.5
				c-1.3,0-6.6,0-8.6,0c-1.5,0-4,0-4,1c0,0,0,9.6,0,9.6S223.6,47.7,225.4,47.7z"/>
		</g>
		<g>
			<path class="st1" d="M269.5,41.9c0.2,0,0.4,0,0.4,0.3c0,0.1,0,0.3-0.1,0.5c0,0.7-0.3,2.6-0.4,2.7c-0.1,0.8-3.6,3.2-8.8,3.2
				c-6.2,0-12.2-4.8-12.2-12.4c0-7.4,4.2-13,12.1-13c6.8,0,10.3,4.2,10.3,10.3c0,0.8,0,1.9-2.3,1.9c-2.5,0-5,0-7.5-0.1
				c-2.5,0-5.6-0.1-8.4-0.1c-0.5,0-0.7,0.4-0.7,0.7c0,7,3.7,11,9,11C266.5,47,268.8,41.9,269.5,41.9z M252,33.4h14.6
				c0.5,0,0.5-0.3,0.5-1c0-4.1-1.7-7.7-7-7.7C254.9,24.7,252.5,30.1,252,33.4z"/>
		</g>
		<g>
			<path class="st1" d="M280.9,45.7c0,1.2,0.9,2,2.5,2c0.3,0,0.5,0.2,0.5,0.4c0,0.2,0,0.5-1.1,0.5c-0.6-0.1-2.5-0.1-3.4-0.1
				c-0.9,0-2.2,0.1-2.8,0.2c-1,0-1-0.3-1-0.4c0-0.1,0.2-0.5,0.8-0.5c0.8,0,1.3-0.8,1.3-1.6V31.5c0-2.4,0.8-8.6,7.4-8.6
				c1.8,0,5.8,0,5.8,3c0,1-0.7,1.9-0.8,2.7l-0.1,0.8c0,0.2,0,0.7-0.4,0.7c-0.4,0-0.5-0.7-0.5-1.1c0-1.3-0.6-4.7-3.7-4.7
				c-3,0-4.3,3.4-4.3,6.4V45.7z"/>
		</g>
		<g>
			<path class="st1" d="M313.8,44.1c0,2,0.7,3.6,2.5,3.6c0.3,0,1,0,1,0.4c0,0.2,0,0.5-0.8,0.5c-0.3,0-1.2-0.2-3.1-0.2h-0.9
				c-1.4-0.1-2.1-0.8-2.1-1.9v-1.8c-1.6,1.6-4.5,3.9-8.6,3.9c-5.1,0-7.7-2.9-7.7-6.9c0-7.4,8.1-7.9,15.5-7.9c0.8,0,0.8-0.8,0.8-1.7
				c0-4.5-1-7.6-6-7.6c-3.2,0-6.4,2.4-7.4,5.3c0,0.2-0.1,0.4-0.5,0.4c-0.2,0-0.3-0.3-0.3-0.6c0-0.2,0.1-1.1,0.1-1.8
				c0-0.8,0-0.9,0-1.5c0-2.5,6.4-3.2,8-3.2c6.4,0,9.5,2.6,9.5,7.6V44.1z M310.4,35.6h-4.7c-4.6,0-8.1,2.3-8.1,6.1
				c0,3.2,2.3,5.2,5.1,5.2c3.5,0,7.8-3.3,7.8-6.2V35.6z"/>
		</g>
	</g>
</g>
</svg>
