<?xml version="1.0" encoding="utf-8"?>
<!-- Generator: Adobe Illustrator 27.8.1, SVG Export Plug-In . SVG Version: 6.00 Build 0)  -->
<svg version="1.1" id="Layer_1" xmlns="http://www.w3.org/2000/svg" xmlns:xlink="http://www.w3.org/1999/xlink" x="0px" y="0px"
	 viewBox="0 0 223 200" style="enable-background:new 0 0 223 200;" xml:space="preserve">
<style type="text/css">
	.st0{fill:#BE9165;}
</style>
<g>
	<g>
		<path class="st0" d="M16.8,104.2c-0.8,0.1-1.5,0.6-2.2,1c-0.5,0.2-0.9,0.4-1.5,0.5c0.5-1,1-2.1,1.5-3.1c0.4-0.7,0.2-1-0.5-1.3
			c-1.5-0.7-3-1.5-4.6-2.3c0.8-0.4,1.6-0.8,2.3-1.2c0.8-0.4,1.5-0.8,2.3-1.2c0.6-0.3,0.7-0.5,0.4-1.1c-0.6-1-1-2-1.4-3.2
			c1.1,0.5,2.2,1,3.2,1.6c0.5,0.3,0.7,0.2,1-0.3c0.7-1.4,1.4-2.7,2-4.1c0.1-0.2,0.2-0.5,0.5-0.7c0.8,1.5,1.6,3.1,2.3,4.6
			c0.3,0.6,0.7,0.7,1.2,0.4c1-0.5,2-1,3.3-1.6c-0.6,1.1-1,2-1.5,2.9c-0.1,0.2-0.4,0.5-0.2,0.8l0,0c-0.3,0.2-0.2,0.4,0.1,0.6
			c1.2,0.6,2.4,1.2,3.8,1.2c17.2-0.1,34.4,0,51.5,0c0.7,0,1.1-0.1,1.1-1c0.3-4,1.3-7.8,3.2-11.4c0.4-0.7-0.1-0.8-0.5-1
			c-7-4-13.9-8-20.9-12.1C42.5,60.2,21.5,48.1,0.6,36c-0.6-0.3-0.7-0.6-0.3-1.1c0.1-0.1,0.2-0.3,0.2-0.4c0.3-0.7,0.6-0.7,1.2-0.3
			C12,40.1,22.3,46,32.6,51.9c13.7,7.9,27.4,15.8,41,23.7c4,2.3,8,4.6,12,6.9c0.5,0.3,0.7,0.2,1-0.2c0.8-1.2,1.6-2.3,2.6-3.4
			c0.3-0.3,0.3-0.5,0-0.8c-0.5-0.5-1-1-1.5-1.4c-0.3-0.3-0.3-0.5,0-0.8c1.1-1.2,1.1-1.2,2.2-0.1c1.2,1.2,1.2,1.2,2.5,0.1
			c0.9-0.7,1.8-1.4,2.7-2c0.4-0.3,0.5-0.5,0.2-0.9c-4.1-7.1-8.2-14.2-12.3-21.2c-0.2-0.3-0.6-0.6-0.3-0.9c0.4-0.4,1-0.7,1.6-0.9
			c0.2-0.1,0.3,0.3,0.4,0.5c3.2,5.6,6.5,11.2,9.7,16.8c0.9,1.6,1.8,3.1,2.7,4.7c0.3,0.5,0.5,0.6,1,0.3c1.3-0.7,2.6-1.2,4-1.7
			c0.5-0.1,0.6-0.4,0.4-0.8c-0.2-0.6-0.3-1.2-0.5-1.8c-0.2-0.5-0.1-0.7,0.4-0.8c1.4-0.4,1.4-0.4,1.8,1c0.5,1.7,0.5,1.7,2.2,1.4
			c1-0.2,2.1-0.3,3.1-0.3c0.6,0,0.8-0.3,0.8-0.8c0-3.7,0-7.4,0-11.1c0-13.5,0-26.9,0-40.4c0-0.7-0.2-1-0.9-1.2
			c-3.8-0.9-6.3-4.3-6-8.1c0.3-4.2,3.4-7.3,7.3-7.5c4.1-0.2,7.6,2.4,8.4,6.3c0.8,4.1-1.7,8.1-5.7,9.2c-0.7,0.2-0.9,0.5-0.9,1.2
			c0,17.1,0,34.3,0,51.4c0,0.8,0.2,1,1,1c1.3,0,2.6,0.2,3.8,0.5c0.6,0.1,0.9,0,1-0.6c0.1-0.6,0.3-1.2,0.5-1.8
			c0.1-0.4,0.2-0.5,0.6-0.4c1.6,0.4,1.6,0.4,1.2,2c-0.4,1.6-0.4,1.6,1.1,2.1c1.1,0.4,2.2,0.8,3.2,1.4c0.4,0.2,0.6,0.1,0.8-0.3
			c4.1-7.1,8.2-14.2,12.3-21.3c0.2-0.3,0.2-0.9,0.7-0.8c0.6,0.1,1.1,0.5,1.5,0.9c0.2,0.2-0.1,0.5-0.2,0.7c-2,3.5-4.1,7-6.1,10.6
			c-2.1,3.6-4.2,7.2-6.3,10.8c-0.3,0.5-0.3,0.8,0.2,1.1c1.2,0.7,2.3,1.6,3.4,2.6c0.3,0.3,0.6,0.3,0.9,0c0.5-0.5,1-1,1.6-1.6
			c0.2-0.2,0.4-0.3,0.6,0c0,0,0,0,0.1,0.1c1.2,1.1,1.2,1.1,0.1,2.3c-1.2,1.2-1.2,1.2-0.1,2.5c0.7,0.8,1.3,1.7,1.9,2.5
			c0.3,0.5,0.5,0.6,1.1,0.3c10.6-6.1,21.1-12.2,31.7-18.3c14.9-8.6,29.9-17.2,44.8-25.9c2.5-1.5,5.1-2.9,7.6-4.4
			c0.4-0.3,0.6-0.2,0.9,0.2c0.7,1.3,0.8,1.3-0.6,2.1c-16.4,9.4-32.8,18.9-49.1,28.3c-11.4,6.6-22.7,13.1-34.1,19.7
			c-0.6,0.4-0.7,0.6-0.4,1.3c1.8,3.6,2.9,7.4,3,11.4c0,0.7,0.4,0.7,0.9,0.7c12.6,0,25.2,0,37.8,0c4.6,0,9.2,0,13.8,0
			c1.4,0,2.4-1,3.5-1.5c0.3-0.1,0.2-0.6,0-1c-0.5-1-1-2-1.4-3.1c1,0.5,2,0.9,3,1.5c0.6,0.4,1,0.2,1.3-0.4c0.7-1.5,1.5-3,2.3-4.7
			c0.3,0.7,0.6,1.2,0.9,1.8c0.5,1,1,2,1.5,3c0.3,0.6,0.7,0.7,1.2,0.4c1-0.5,2-1,3.2-1.4c-0.5,1-1,2-1.5,3c-0.3,0.6-0.2,1,0.4,1.3
			c1.5,0.7,3,1.5,4.6,2.3c-1.2,0.6-2.3,1.2-3.4,1.7c-2,1-2,1-1,3.1c0.3,0.6,0.6,1.3,1,2.1c-1.2-0.6-2.2-1.1-3.1-1.6
			c-1-0.5-1-0.5-1.5,0.4c-0.7,1.4-1.4,2.9-2.2,4.4c-0.8-1.5-1.5-2.9-2.2-4.3c-0.4-0.9-0.6-1.1-1.6-0.5c-0.9,0.5-1.9,1-3,1.3
			c0.5-1,1-2,1.5-3c0.5-1,0.4-0.9-0.5-1.5c-1.5-0.9-3.2-1.2-5-1.2c-16.4,0-32.9,0-49.3,0c-1.1,0-1.1,0-1.2,1.1
			c-0.2,3.9-1.2,7.6-3,11.1c-0.3,0.5-0.2,0.8,0.3,1.1c26,15,52,30,78.1,45c2,1.1,3.9,2.3,5.9,3.4c0.4,0.3,0.5,0.4,0.2,0.9
			c-0.8,1.3-0.8,1.3-2,0.6c-18.3-10.6-36.6-21.1-54.9-31.7c-9.5-5.5-19-10.9-28.4-16.4c-0.5-0.3-0.7-0.2-1,0.2
			c-0.8,1.3-1.8,2.5-2.8,3.6c-0.3,0.3-0.3,0.5,0,0.8c0.4,0.4,0.8,0.8,1.2,1.2c0.3,0.3,0.3,0.5,0,0.8c-1.1,1.2-1.1,1.2-2.2,0
			c-0.9-0.9-0.9-0.9-1.9-0.1c-0.9,0.8-1.9,1.6-3,2.2c-0.5,0.3-0.5,0.5-0.2,1c3.5,6,7,12.1,10.5,18.1c0.6,1.1,1.2,2.1,1.8,3.1
			c0.3,0.4,0.2,0.6-0.2,0.9c-1.3,0.7-1.3,0.8-2.1-0.6c-3.9-6.8-7.9-13.7-11.8-20.5c-0.3-0.5-0.6-0.6-1.1-0.3
			c-1.2,0.7-2.5,1.2-3.9,1.6c-0.6,0.2-0.8,0.4-0.5,1c0.1,0.1,0.1,0.3,0.1,0.5c0.4,1.5,0.4,1.5-1.2,1.9c-0.4,0.1-0.6,0-0.7-0.4
			c-0.1-0.5-0.3-1.1-0.4-1.6c-0.1-0.4-0.2-0.5-0.6-0.4c-1.5,0.3-3,0.6-4.5,0.6c-0.4,0-0.6,0.2-0.6,0.6c0,0.2,0,0.5,0,0.7
			c0,16.6,0,33.2,0,49.8c0,1.1,0.2,2,0.7,3c1.1,2.1,1.1,2.1,3.3,1c0.6-0.3,1.1-0.6,1.9-0.9c-0.6,1.2-1.1,2.3-1.6,3.3
			c-0.3,0.6-0.2,0.9,0.4,1.2c1.5,0.7,3,1.5,4.7,2.3c-1.6,0.8-3.2,1.6-4.7,2.3c-0.6,0.3-0.7,0.7-0.4,1.2c0.5,1,1,2.1,1.5,3.3
			c-0.7-0.4-1.5-0.7-2.2-1.1c-1.7-0.9-1.7-0.9-2.5,0.8c-0.6,1.2-1.2,2.4-1.9,3.7c-0.8-1.6-1.6-3.1-2.3-4.5c-0.3-0.7-0.7-0.7-1.3-0.4
			c-1,0.5-2,1-3.2,1.4c0.5-1,1-2,1.5-3.1c0.3-0.6,0.3-1-0.4-1.3c-1.5-0.7-3-1.5-4.7-2.3c1.5-0.8,2.9-1.4,4.2-2.1
			c1.1-0.6,1.3-0.4,0.6-1.8c-0.5-0.9-0.9-1.8-1.4-2.9c1.1,0.6,2.1,1,3.1,1.5c0.9,0.5,1,0.4,1.6-0.5c0.9-1.4,1.1-2.9,1.1-4.6
			c0-16.5,0-33,0-49.5c0-1.4,0.1-1.1-1.1-1.2c-1.3-0.1-2.7-0.3-4-0.5c-0.4-0.1-0.6,0-0.7,0.4c-0.1,0.3-0.1,0.6-0.3,0.9
			c-0.1,0.4,0,1-0.5,1.1c-0.6,0-1.2-0.2-1.7-0.4c-0.2-0.1-0.1-0.3-0.1-0.5c0.1-0.5,0.2-1,0.4-1.5c0.2-0.6,0-0.7-0.5-0.9
			c-1.4-0.4-2.7-1-3.9-1.6c-0.5-0.3-0.7-0.1-1,0.3c-4,7-8.1,14.1-12.2,21.1c-0.3,0.5-0.5,0.6-1.1,0.3c-1.2-0.7-1.2-0.7-0.5-1.9
			c4-6.9,7.9-13.7,11.9-20.5c0.3-0.5,0.3-0.7-0.2-1c-1.2-0.8-2.4-1.7-3.4-2.7c-0.3-0.3-0.6-0.3-0.9,0c-0.4,0.4-0.8,0.8-1.2,1.2
			c-0.2,0.3-0.4,0.2-0.6,0c-1.3-1.1-1.3-1.1-0.1-2.3c0.2-0.2,0.3-0.3,0.5-0.5c0.3-0.2,0.2-0.4,0-0.7c-1.1-1.2-2.1-2.5-2.9-3.8
			c-0.3-0.5-0.6-0.3-0.9-0.1c-3,1.8-6.1,3.5-9.1,5.3c-15.7,9.1-31.5,18.2-47.2,27.2c-9,5.2-18,10.4-27.1,15.6
			c-0.2,0.1-0.4,0.2-0.6,0.4c-0.3,0.2-0.5,0.1-0.7-0.2c-0.9-1.3-0.9-1.3,0.4-2.1c24.7-14.2,49.4-28.5,74.1-42.7
			c3-1.7,5.9-3.4,8.9-5.1c0.6-0.4,0.8-0.6,0.4-1.3c-1.8-3.5-2.7-7.3-3-11.2c0-0.7-0.2-0.9-0.9-0.9c-5.9,0-11.8,0-17.7,0
			c-10.9,0-21.7,0-32.6,0c-1.3,0-2.5,0.2-3.7,0.9c-2,1.1-2,1-1,3.1c0.3,0.6,0.6,1.3,0.9,2c-0.8-0.4-1.5-0.7-2.3-1.2
			c-0.5-0.3-1.1-0.3-1.6-0.6c-0.3-0.1-0.3,0.2-0.4,0.4c-0.8,1.5-1.5,3.1-2.3,4.6c-0.3,0-0.4-0.3-0.5-0.5c-0.7-1.3-1.3-2.7-2-4
			C17.3,104.3,17.2,103.8,16.8,104.2L16.8,104.2z M111.4,71.2c-15.4,0-27.7,12.3-27.7,27.7c0,15.3,12.4,27.8,27.7,27.8
			c15.3,0,27.8-12.4,27.8-27.7C139.2,83.6,126.8,71.2,111.4,71.2z"/>
		<path class="st0" d="M179.7,37.5c-1.3-0.1-2.5-0.3-3.6-1c-0.4-0.2-0.6-0.2-0.9,0.1c-1.3,1.3-2.5,2.5-3.8,3.8
			c-0.4,0.4-0.6,0.5-1.1,0c-1-1-1-1,0-2c1.1-1.1,2.2-2.2,3.3-3.2c0.3-0.3,0.4-0.6,0.1-1c-2.5-4.2,0-9.4,4.8-10.1
			c3.6-0.5,7,1.9,7.6,5.5c0.6,3.7-1.8,7.1-5.4,7.8C180.4,37.4,180,37.4,179.7,37.5z M184.7,30.7c0-2.8-2.2-5.1-5-5.1
			c-2.9,0-5.2,2.2-5.2,5.1c0,2.9,2.2,5.1,5.1,5.1C182.4,35.8,184.6,33.6,184.7,30.7z"/>
		<path class="st0" d="M179.5,173.7c-5.1,0-8.4-5.6-5.8-10c0.3-0.5,0.3-0.8-0.2-1.3c-1.2-1.2-2.4-2.4-3.6-3.6
			c-0.4-0.4-0.4-0.6,0-1.1c1-1,1-1,2,0c1.1,1.1,2.2,2.2,3.2,3.3c0.3,0.3,0.5,0.3,0.9,0.1c4.5-2.5,9.6,0.1,10.2,5.2
			C186.7,170.1,183.4,173.7,179.5,173.7z M184.7,166.9c0-2.8-2.2-5.1-5-5.1c-2.9,0-5.2,2.2-5.2,5.1c0,2.9,2.2,5.1,5.1,5.1
			C182.4,172,184.6,169.8,184.7,166.9z"/>
		<path class="st0" d="M37,166.9c0-5,5.3-8.3,9.8-5.9c0.6,0.3,0.8,0.2,1.3-0.2c1.1-1.2,2.3-2.3,3.4-3.5c0.4-0.5,0.7-0.4,1,0
			c1,1,1,1,0,2.1c-1,1-1.9,2-2.9,2.9c-0.4,0.4-0.5,0.6-0.2,1.2c1.5,2.4,1.3,5.5-0.4,7.7c-1.8,2.3-4.8,3.1-7.5,2.2
			C38.8,172.3,37,169.7,37,166.9z M43.8,161.8c-2.9,0-5.2,2.2-5.2,5.1c0,2.9,2.2,5.1,5.1,5.2c2.9,0,5.2-2.2,5.2-5.1
			C48.9,164.1,46.6,161.8,43.8,161.8z"/>
		<path class="st0" d="M50.5,30.7c0,1.4-0.4,2.6-1.1,3.7c-0.3,0.4-0.2,0.7,0.1,1c1.2,1.2,2.4,2.4,3.6,3.6c0.3,0.3,0.4,0.5,0,0.9
			C52,41,52,41.1,51,40c-1-1-2-2-3-3c-0.4-0.4-0.7-0.5-1.2-0.2c-2.5,1.2-4.9,1-7.1-0.7c-2.1-1.6-3-3.9-2.5-6.6
			c0.5-2.8,2.2-4.6,5-5.3C46.3,23.1,50.5,26.3,50.5,30.7z M43.8,35.8c2.9,0,5.1-2.3,5.1-5.1c0-2.8-2.3-5.1-5.1-5.1
			c-2.9,0-5.1,2.3-5.1,5.1C38.6,33.6,40.9,35.8,43.8,35.8z"/>
		<path class="st0" d="M64,147.8c-0.1,0.3-0.3,0.4-0.4,0.5c-1.6,1.6-3.3,3.3-4.9,4.9c-0.2,0.2-0.4,0.3-0.7,0
			c-1.3-1.1-1.3-1.1-0.1-2.3c1.3-1.3,2.6-2.6,3.9-3.9c0.5-0.6,0.8-0.5,1.3,0C63.3,147.3,63.7,147.5,64,147.8z"/>
		<path class="st0" d="M58,44c0.3,0.2,0.4,0.3,0.6,0.5c1.6,1.6,3.2,3.2,4.8,4.8c0.3,0.3,0.3,0.5,0,0.8c-1.1,1.1-1.1,1.2-2.2,0.1
			c-1.4-1.4-2.7-2.8-4.1-4.1c-0.4-0.3-0.4-0.5,0-0.9C57.4,44.8,57.7,44.4,58,44z"/>
		<path class="st0" d="M166.3,45.5c-0.2,0.2-0.3,0.4-0.4,0.5c-1.6,1.6-3.2,3.2-4.9,4.9c-0.3,0.3-0.5,0.3-0.8,0
			c-1.1-1.1-1.2-1.1,0-2.2c1.3-1.3,2.7-2.7,4-4c0.4-0.5,0.7-0.4,1.1,0C165.6,45,165.9,45.2,166.3,45.5z"/>
		<path class="st0" d="M68.5,143.2c-0.5-0.5-1-0.9-1.3-1.4c-0.2-0.4,0.3-0.5,0.5-0.8c1.5-1.5,3-3,4.5-4.5c0.3-0.3,0.5-0.4,0.9,0
			c1.1,1.1,1.1,1.1,0,2.2c-1.4,1.4-2.7,2.7-4.1,4.1C68.9,142.9,68.8,143,68.5,143.2z"/>
		<path class="st0" d="M84.5,127.2c-0.2,0.3-0.3,0.4-0.4,0.5c-1.6,1.6-3.3,3.3-4.9,4.9c-0.2,0.3-0.4,0.3-0.7,0
			c-1.3-1.1-1.3-1.1-0.1-2.3c1.3-1.3,2.7-2.6,4-4c0.5-0.5,0.7-0.5,1.2,0C83.8,126.7,84.2,127,84.5,127.2z"/>
		<path class="st0" d="M68.4,54.4c0.3,0.2,0.4,0.4,0.5,0.5c1.6,1.6,3.2,3.2,4.8,4.8c0.3,0.3,0.3,0.5,0,0.9c-1.1,1.1-1.1,1.1-2.1,0.1
			c-1.4-1.4-2.7-2.8-4.1-4.1c-0.4-0.4-0.4-0.6,0-0.9C67.8,55.2,68.1,54.8,68.4,54.4z"/>
		<path class="st0" d="M154.4,54.5c0.4,0.4,0.9,0.8,1.3,1.3c0.2,0.4-0.3,0.6-0.5,0.8c-1.5,1.5-2.9,2.9-4.4,4.4
			c-0.4,0.4-0.6,0.5-1.1,0c-1-1-1-1,0-2.1c1.4-1.4,2.8-2.8,4.1-4.1C154,54.8,154.1,54.6,154.4,54.5z"/>
		<path class="st0" d="M78.8,64.8c0.1,0.1,0.2,0.2,0.3,0.3c1.6,1.6,3.2,3.2,4.9,4.8c0.3,0.3,0.3,0.5,0,0.8c-1.1,1.1-1.1,1.1-2.2,0
			c-1.2-1.2-2.4-2.4-3.6-3.6c-1-1-1-1,0-2C78.4,65,78.5,64.8,78.8,64.8z"/>
		<path class="st0" d="M144.2,64.8c0.1,0,1.4,1.3,1.4,1.4c0,0.2-0.1,0.3-0.2,0.4c-1.6,1.6-3.3,3.3-4.9,4.9c-0.3,0.3-0.5,0.3-0.8,0
			c-1.2-1.1-1.2-1.1-0.1-2.3c1.4-1.4,2.7-2.7,4.1-4.1C143.8,65,143.9,64.8,144.2,64.8z"/>
		<path class="st0" d="M87,186.1c0.6-2.3,1.2-4.7,1.9-7c0.1-0.3,0.2-0.3,0.5-0.3c1.7,0.3,1.7,0.3,1.3,1.9c-0.5,1.9-1,3.7-1.5,5.6
			c-0.1,0.6-0.4,0.7-0.9,0.5c-0.3-0.1-0.7-0.2-1.1-0.3C87,186.5,86.9,186.3,87,186.1z"/>
		<path class="st0" d="M126.1,47.1c-0.5-0.1-1.1-0.3-1.6-0.5c-0.3-0.1-0.2-0.3-0.1-0.5c0.6-2.3,1.2-4.6,1.8-6.9
			c0.1-0.3,0.2-0.4,0.6-0.3c1.7,0.3,1.7,0.3,1.2,2c-0.5,1.9-1,3.7-1.5,5.6C126.5,46.8,126.5,47.1,126.1,47.1z"/>
		<path class="st0" d="M132,18.1c0.6-2.3,1.2-4.7,1.9-7c0.1-0.3,0.2-0.3,0.5-0.3c1.7,0.3,1.7,0.3,1.3,1.9c-0.5,1.8-1,3.7-1.5,5.5
			c-0.2,0.6-0.4,0.8-1,0.5c-0.3-0.1-0.7-0.2-1-0.3C131.9,18.5,131.9,18.3,132,18.1z"/>
		<path class="st0" d="M96.2,158.7c-0.1,0-0.1,0-0.1,0c-1.7-0.3-1.7-0.3-1.2-1.9c0.5-1.9,1-3.7,1.5-5.6c0.1-0.5,0.3-0.6,0.8-0.5
			c1.5,0.4,1.5,0.4,1.1,1.8c-0.5,1.9-1,3.8-1.5,5.6C96.7,158.4,96.7,158.8,96.2,158.7z"/>
		<path class="st0" d="M130.5,24.9c0.4,0.1,0.9,0.2,1.4,0.4c0.3,0.1,0.2,0.3,0.2,0.5c-0.6,2.3-1.2,4.5-1.8,6.8
			c-0.1,0.3-0.3,0.4-0.6,0.3c-0.1,0-0.1,0-0.2,0c-1.8-0.6-1.6-0.1-1.1-1.8c0.5-1.9,1-3.8,1.5-5.7C130,25.1,130,24.8,130.5,24.9z"/>
		<path class="st0" d="M93.1,164.7c0.4,0.1,0.9,0.2,1.4,0.4c0.3,0.1,0.2,0.3,0.2,0.5c-0.6,2.3-1.2,4.5-1.8,6.8
			c-0.1,0.3-0.3,0.4-0.6,0.3c-0.1,0-0.1,0-0.2,0c-1.8-0.6-1.6-0.1-1.1-1.9c0.5-1.9,1-3.8,1.5-5.7C92.7,164.9,92.6,164.6,93.1,164.7z
			"/>
		<path class="st0" d="M124.7,144c0,0.1,0,0.3-0.1,0.3c-0.6,0.2-1.1,0.3-1.7,0.4c-0.3,0.1-0.3-0.2-0.4-0.4c-0.6-2.2-1.2-4.4-1.8-6.6
			c-0.1-0.4-0.1-0.6,0.3-0.7c1.6-0.5,1.6-0.5,2,1.1c0.5,1.8,1,3.6,1.5,5.4C124.6,143.6,124.6,143.8,124.7,144z"/>
		<path class="st0" d="M126.6,158.7c-0.3,0.1-0.3-0.2-0.3-0.4c-0.6-2.3-1.2-4.5-1.8-6.8c-0.1-0.4,0-0.5,0.4-0.7
			c1.5-0.5,1.5-0.5,1.9,1c0.5,1.8,0.9,3.6,1.5,5.4c0.2,0.6,0.1,1-0.6,1.1C127.3,158.5,127,158.6,126.6,158.7z"/>
		<path class="st0" d="M124.6,53.7c-0.5,1.9-1,3.6-1.4,5.3c-0.2,0.6-0.3,1.2-0.5,1.8c-0.1,0.3-0.2,0.4-0.5,0.3
			c-1.7-0.3-1.7-0.3-1.3-2c0.5-1.8,1-3.6,1.4-5.4c0.1-0.6,0.4-0.8,1-0.6c0.3,0.1,0.6,0.2,0.9,0.2C124.6,53.5,124.7,53.6,124.6,53.7z
			"/>
		<path class="st0" d="M102.2,60.2c0.1,0.3,0,0.4-0.1,0.5c-0.5,0.1-1,0.3-1.5,0.4c-0.3,0.1-0.4-0.1-0.4-0.4
			c-0.6-2.3-1.2-4.6-1.8-6.9c-0.1-0.2-0.1-0.4,0.2-0.4c0.5-0.1,1-0.3,1.5-0.4c0.2-0.1,0.3,0.1,0.4,0.3
			C100.9,55.7,101.6,58,102.2,60.2z"/>
		<path class="st0" d="M100.1,144.8c-0.6-0.2-1-0.3-1.5-0.4c-0.4-0.1-0.3-0.4-0.3-0.6c0.6-2.3,1.2-4.5,1.8-6.8
			c0.1-0.4,0.3-0.4,0.6-0.3c1.6,0.4,1.7,0.3,1.2,2c-0.5,1.8-1,3.7-1.5,5.5C100.4,144.4,100.4,144.9,100.1,144.8z"/>
		<path class="st0" d="M96.1,39.1c0.3-0.1,0.4,0.1,0.5,0.4c0.6,2.2,1.2,4.5,1.8,6.7c0.1,0.4,0,0.6-0.4,0.7c-1.5,0.5-1.5,0.5-1.9-1
			c-0.5-1.8-0.9-3.6-1.5-5.3c-0.2-0.7-0.1-1.1,0.7-1.2C95.6,39.3,95.9,39.2,96.1,39.1z"/>
		<path class="st0" d="M136,186c0,0.2,0,0.4-0.2,0.4c-0.1,0-0.1,0-0.2,0c-1.6,0.6-1.6,0.6-2-1.1c-0.5-1.8-0.9-3.6-1.5-5.4
			c-0.2-0.6-0.1-0.8,0.5-1c1.4-0.3,1.4-0.4,1.7,1c0.5,1.8,1,3.7,1.5,5.5C135.9,185.7,136,185.9,136,186z"/>
		<path class="st0" d="M92.8,33c-0.3,0-0.3-0.2-0.3-0.4c-0.6-2.3-1.2-4.5-1.8-6.8c-0.1-0.3,0-0.4,0.3-0.6c1.6-0.6,1.6-0.6,2.1,1.1
			c0.5,1.9,1,3.7,1.5,5.6c0.1,0.5,0.1,0.7-0.5,0.8C93.7,32.8,93.3,32.9,92.8,33z"/>
		<path class="st0" d="M132.2,171.8c0.1,0.3,0,0.5-0.2,0.5c-0.1,0-0.1,0-0.2,0c-1.6,0.6-1.6,0.6-2-1c-0.5-1.8-1-3.7-1.5-5.5
			c-0.2-0.6-0.1-0.8,0.5-0.9c1.4-0.3,1.4-0.4,1.8,1.1c0.5,1.8,1,3.7,1.5,5.5C132.1,171.6,132.2,171.7,132.2,171.8z"/>
		<path class="st0" d="M90.8,18c0.1,0.4,0,0.5-0.2,0.6c-0.1,0-0.2,0-0.2,0.1c-1.5,0.5-1.5,0.5-1.9-1c-0.5-1.8-1-3.7-1.5-5.5
			c-0.2-0.6-0.1-0.8,0.5-1c1.4-0.3,1.4-0.4,1.7,1c0.5,1.9,1,3.7,1.5,5.6C90.8,17.8,90.8,18,90.8,18z"/>
		<path class="st0" d="M155.8,141.7c-0.5,0.5-0.9,1-1.4,1.3c-0.3,0.2-0.5-0.2-0.7-0.4c-1.5-1.5-3-3.1-4.6-4.6
			c-0.3-0.3-0.4-0.5,0-0.9c1.1-1.1,1.1-1.1,2.1,0c1.4,1.4,2.7,2.7,4.1,4.1C155.5,141.4,155.7,141.5,155.8,141.7z"/>
		<path class="st0" d="M166.1,152c-0.2,0.4-0.6,0.6-0.8,0.9c-0.4,0.6-0.8,0.6-1.3,0c-1.4-1.5-3-3-4.5-4.5c-0.4-0.4-0.5-0.6,0-1
			c1.1-1,1-1,2.1,0c1.4,1.4,2.7,2.7,4.1,4.1C165.8,151.7,165.9,151.8,166.1,152z"/>
		<path class="st0" d="M140.1,126c0.1,0.1,0.3,0.2,0.4,0.4c1.6,1.6,3.2,3.2,4.8,4.7c0.4,0.3,0.3,0.5,0,0.9c-1.1,1.1-1,1.1-2.1,0
			c-1.4-1.4-2.7-2.7-4.1-4.1c-0.4-0.4-0.5-0.7,0-1.1C139.4,126.6,139.6,126.2,140.1,126z"/>
		<path class="st0" d="M25,96c0.1,0,0.1,0,0.2,0.1c0,0,0,0-0.1,0C25.1,96,25,96,25,96C25,96,25,96,25,96z"/>
		<polygon class="st0" points="16.8,104.2 16.8,104.2 16.8,104.2 		"/>
	</g>
	<path class="st0" d="M111.5,130.7c-17.2,0-31.2-14-31.2-31.2s14-31.2,31.2-31.2s31.2,14,31.2,31.2S128.7,130.7,111.5,130.7z
		 M111.5,73.3c-14.4,0-26.2,11.8-26.2,26.2s11.8,26.2,26.2,26.2s26.2-11.8,26.2-26.2S125.9,73.3,111.5,73.3z"/>
	<path class="st0" d="M44.5,38.4c-4.2,0-7.7-3.4-7.7-7.7c0-4.2,3.4-7.7,7.7-7.7c4.2,0,7.7,3.4,7.7,7.7
		C52.2,34.9,48.8,38.4,44.5,38.4z M44.5,26.5c-2.3,0-4.2,1.9-4.2,4.2s1.9,4.2,4.2,4.2s4.2-1.9,4.2-4.2S46.9,26.5,44.5,26.5z"/>
	<path class="st0" d="M180.4,38.4c-4.2,0-7.7-3.4-7.7-7.7c0-4.2,3.4-7.7,7.7-7.7s7.7,3.4,7.7,7.7C188,34.9,184.6,38.4,180.4,38.4z
		 M180.4,26.5c-2.3,0-4.2,1.9-4.2,4.2s1.9,4.2,4.2,4.2s4.2-1.9,4.2-4.2S182.7,26.5,180.4,26.5z"/>
	<path class="st0" d="M44.5,174.5c-4.2,0-7.7-3.4-7.7-7.7c0-4.2,3.4-7.7,7.7-7.7c4.2,0,7.7,3.4,7.7,7.7
		C52.2,171.1,48.8,174.5,44.5,174.5z M44.5,162.6c-2.3,0-4.2,1.9-4.2,4.2s1.9,4.2,4.2,4.2s4.2-1.9,4.2-4.2S46.9,162.6,44.5,162.6z"
		/>
	<path class="st0" d="M180.4,174.5c-4.2,0-7.7-3.4-7.7-7.7c0-4.2,3.4-7.7,7.7-7.7s7.7,3.4,7.7,7.7
		C188,171.1,184.6,174.5,180.4,174.5z M180.4,162.6c-2.3,0-4.2,1.9-4.2,4.2s1.9,4.2,4.2,4.2s4.2-1.9,4.2-4.2
		S182.7,162.6,180.4,162.6z"/>
</g>
</svg>
