<?xml version="1.0" encoding="utf-8"?>
<!-- Generator: Adobe Illustrator 27.8.1, SVG Export Plug-In . SVG Version: 6.00 Build 0)  -->
<svg version="1.1" id="Isolation_Mode" xmlns="http://www.w3.org/2000/svg" xmlns:xlink="http://www.w3.org/1999/xlink" x="0px"
	 y="0px" viewBox="0 0 50 50" style="enable-background:new 0 0 50 50;" xml:space="preserve">
<style type="text/css">
	.st0{fill:#BD9062;}
	.st1{fill-rule:evenodd;clip-rule:evenodd;fill:#FFFFFF;}
</style>
<g>
	<path class="st0" d="M50,25c0,13.8-11.2,25-25,25C11.2,50,0,38.8,0,25C0,11.2,11.2,0,25,0C38.8,0,50,11.2,50,25z"/>
	<g>
		<g>
			<path class="st1" d="M25.3,9.4c-8.9,0-16.1,7.2-16.1,16.1c0,3,0.8,5.9,2.3,8.3l-2.9,8.7l8.9-2.9c2.3,1.3,5,2,7.8,2
				c8.9,0,16.1-7.2,16.1-16.1C41.5,16.6,34.2,9.4,25.3,9.4z M25.3,39c-2.7,0-5.3-0.8-7.4-2.2l-5.2,1.7l1.7-5
				c-1.6-2.2-2.6-4.9-2.6-7.9c0-7.4,6-13.4,13.4-13.4c7.4,0,13.4,6,13.4,13.4C38.7,32.9,32.7,39,25.3,39z M32.9,29.2
				c-0.4-0.2-2.4-1.3-2.8-1.4c-0.4-0.2-0.6-0.2-0.9,0.2c-0.3,0.4-1.1,1.3-1.4,1.6c-0.2,0.3-0.5,0.3-0.9,0.1
				c-0.4-0.2-1.7-0.7-3.2-2.2c-1.2-1.1-2-2.5-2.2-2.9c-0.2-0.4,0-0.6,0.2-0.8c0.2-0.2,0.4-0.5,0.6-0.7c0.2-0.2,0.3-0.4,0.4-0.7
				c0.1-0.3,0.1-0.5,0-0.7c-0.1-0.2-0.8-2.3-1.2-3.1s-0.7-0.7-0.9-0.7c-0.2,0-0.5-0.1-0.8-0.1c-0.3,0-0.7,0.1-1.1,0.5
				c-0.4,0.4-1.5,1.4-1.6,3.4c-0.1,2,1.3,4,1.5,4.3c0.2,0.3,2.7,4.7,6.8,6.5c4.1,1.8,4.1,1.3,4.9,1.2c0.8,0,2.5-0.9,2.9-1.9
				c0.4-0.9,0.4-1.8,0.3-1.9C33.6,29.5,33.3,29.4,32.9,29.2z"/>
		</g>
	</g>
</g>
</svg>
