<?xml version="1.0" encoding="utf-8"?>
<!-- Generator: Adobe Illustrator 27.8.1, SVG Export Plug-In . SVG Version: 6.00 Build 0)  -->
<svg version="1.1" id="Isolation_Mode" xmlns="http://www.w3.org/2000/svg" xmlns:xlink="http://www.w3.org/1999/xlink" x="0px"
	 y="0px" viewBox="0 0 50 50" style="enable-background:new 0 0 50 50;" xml:space="preserve">
<style type="text/css">
	.st0{fill:#FFFFFF;}
	.st1{fill:#0A2A45;}
</style>
<g>
	<g>
		<path class="st0" d="M50,25c0,13.8-11.2,25-25,25S0,38.8,0,25S11.2,0,25,0S50,11.2,50,25z"/>
	</g>
	<g>
		<path class="st1" d="M31.3,10.1H18.7c-4.8,0-8.6,3.9-8.6,8.6v12.6c0,4.8,3.9,8.6,8.6,8.6h12.6c4.8,0,8.6-3.9,8.6-8.6V18.7
			C39.9,13.9,36.1,10.1,31.3,10.1 M37.2,31.5c0,3.2-2.6,5.7-5.7,5.7h-13c-3.2,0-5.7-2.6-5.7-5.7V18.6c0-3.2,2.6-5.7,5.7-5.7h13
			c3.2,0,5.7,2.6,5.7,5.7V31.5z"/>
		<path class="st1" d="M25,17.3c-4.3,0-7.7,3.5-7.7,7.7c0,4.3,3.5,7.7,7.7,7.7c4.3,0,7.7-3.5,7.7-7.7C32.7,20.7,29.3,17.3,25,17.3
			 M25,30c-2.8,0-5-2.2-5-5s2.2-5,5-5s5,2.2,5,5S27.8,30,25,30"/>
		<path class="st1" d="M33,15.5c-1,0-1.8,0.8-1.8,1.8s0.8,1.8,1.8,1.8s1.8-0.8,1.8-1.8S34,15.5,33,15.5"/>
	</g>
</g>
</svg>
