<?xml version="1.0" encoding="utf-8"?>
<!-- Generator: Adobe Illustrator 27.8.1, SVG Export Plug-In . SVG Version: 6.00 Build 0)  -->
<svg version="1.1" id="Isolation_Mode" xmlns="http://www.w3.org/2000/svg" xmlns:xlink="http://www.w3.org/1999/xlink" x="0px"
	 y="0px" viewBox="0 0 50 50" style="enable-background:new 0 0 50 50;" xml:space="preserve">
<style type="text/css">
	.st0{fill:#FFFFFF;}
	.st1{fill:#0A2A45;}
</style>
<g>
	<g>
		<path class="st0" d="M50,25c0,13.8-11.2,25-25,25S0,38.8,0,25S11.2,0,25,0S50,11.2,50,25z"/>
	</g>
	<path class="st1" d="M13.4,14.8c-1.7,0-3.2,1.4-3.2,3.2v14c0,1.7,1.4,3.2,3.2,3.2h23.2c1.7,0,3.2-1.4,3.2-3.2V18
		c0-1.7-1.4-3.2-3.2-3.2H13.4z M13.6,16.9h22.7l-10.7,9.6c-0.4,0.4-0.9,0.4-1.3,0L13.6,16.9L13.6,16.9z M12.3,18.6l7.2,6.4l-7.2,7
		V18.6z M37.7,18.6V32l-7.3-7L37.7,18.6z M28.9,26.4l6.9,6.6H14.2l6.9-6.6l1.8,1.6c1.2,1,2.9,1,4.1,0L28.9,26.4L28.9,26.4z"/>
</g>
</svg>
