<?xml version="1.0" encoding="utf-8"?>
<!-- Generator: Adobe Illustrator 27.8.1, SVG Export Plug-In . SVG Version: 6.00 Build 0)  -->
<svg version="1.1" id="Isolation_Mode" xmlns="http://www.w3.org/2000/svg" xmlns:xlink="http://www.w3.org/1999/xlink" x="0px"
	 y="0px" viewBox="0 0 36 36" style="enable-background:new 0 0 36 36;" xml:space="preserve">
<style type="text/css">
	.st0{fill:#FFFFFF;}
	.st1{fill:#1D4BDD;}
</style>
<g>
	<g>
		<path class="st0" d="M36,18c0,9.9-8.1,18-18,18S0,27.9,0,18S8.1,0,18,0S36,8.1,36,18z"/>
	</g>
	<g>
		<path class="st1" d="M22.5,7.3h-9.1c-3.5,0-6.2,2.8-6.2,6.2v9.1c0,3.5,2.8,6.2,6.2,6.2h9.1c3.5,0,6.2-2.8,6.2-6.2v-9.1
			C28.7,10,26,7.3,22.5,7.3 M26.8,22.7c0,2.3-1.9,4.1-4.1,4.1h-9.4c-2.3,0-4.1-1.9-4.1-4.1v-9.3c0-2.3,1.9-4.1,4.1-4.1h9.3
			c2.3,0,4.1,1.9,4.1,4.1L26.8,22.7L26.8,22.7z"/>
		<path class="st1" d="M18,12.5c-3.1,0-5.5,2.5-5.5,5.5c0,3.1,2.5,5.5,5.5,5.5c3.1,0,5.5-2.5,5.5-5.5C23.5,14.9,21.1,12.5,18,12.5
			 M18,21.6c-2,0-3.6-1.6-3.6-3.6s1.6-3.6,3.6-3.6s3.6,1.6,3.6,3.6S20,21.6,18,21.6"/>
		<path class="st1" d="M23.8,11.2c-0.7,0-1.3,0.6-1.3,1.3s0.6,1.3,1.3,1.3s1.3-0.6,1.3-1.3S24.5,11.2,23.8,11.2"/>
	</g>
</g>
</svg>
